<svg width="172" height="73" viewBox="0 0 172 73" fill="none" xmlns="http://www.w3.org/2000/svg">
<g filter="url(#filter0_d_3_180)">
<path d="M148.431 0L148.106 0.124912C147.925 0.193821 147.775 0.283239 147.775 0.328714C147.775 0.499101 148.181 0.403706 148.305 0.203803L148.431 0ZM144.813 1.26226C144.7 1.26604 144.564 1.34191 144.475 1.48579L144.336 1.71589L143.64 1.5844L142.951 1.45949L142.076 2.02488C141.595 2.33726 141.201 2.66273 141.201 2.74805C141.201 2.83338 141.412 3.14223 141.672 3.43178C141.932 3.72133 142.205 3.92155 142.275 3.87883C142.344 3.83611 142.569 3.43778 142.772 2.9913L143.136 2.17609L144.077 1.92627L145.018 1.67644V1.46607C145.018 1.32518 144.926 1.25849 144.813 1.26226ZM139.876 4.26671L139.001 4.30616L138.126 4.34561L137.53 4.63487L136.927 4.91757L136.523 4.66775L136.118 4.41135L135.27 4.75321L134.415 5.0885V5.27915V5.46323H134.077H133.733L133.315 5.98918L132.898 6.51512H132.401H131.897L131.785 6.33762L131.672 6.15353L131.115 6.25872L130.565 6.36391L130.353 6.90958C130.078 7.62758 129.548 8.20085 128.948 8.42824L128.471 8.61232L128.246 9.19743C127.926 10.0313 127.449 10.4918 126.311 11.0645L125.31 11.5642H124.475H123.64L123.183 12.4386C122.931 12.9181 122.478 13.6303 122.176 14.023L121.632 14.7396L120.015 15.4627C117.863 16.4321 117.65 16.5649 116.47 17.6651C115.912 18.1858 115.4 18.6152 115.337 18.6184C115.274 18.6216 114.89 18.9426 114.482 19.3284L113.74 20.0253L112.573 20.5447C111.932 20.8288 110.978 21.2491 110.453 21.4782L109.499 21.8924L106.848 22.083L104.197 22.2671L102.183 22.8325L100.168 23.3979L98.4385 23.3782L96.7155 23.3584L95.8077 23.1546L94.8998 22.9574L92.872 23.3847L90.8376 23.8121L88.3989 23.6346L85.9602 23.4571L82.0902 23.5162L78.2201 23.5688L77.1731 23.1218L76.1327 22.6747L75.7417 22.8983L75.3574 23.1218L75.7815 23.1546C76.0147 23.1719 76.2817 23.1712 76.3779 23.1546L76.5568 23.1283L76.4176 23.3519L76.2785 23.5688L76.7026 24.2854C76.9354 24.6769 77.0763 25.0389 77.0207 25.0941C76.9651 25.1493 76.3073 24.8574 75.5562 24.4432L74.191 23.6872V23.4899V23.2927L74.8405 23.4242L75.4833 23.5491L75.3574 23.3453L75.2248 23.1349H74.8405H74.4627L73.8862 22.6879L73.3163 22.2408L72.7332 22.7931L72.15 23.3453H71.262H70.374V23.5425C70.374 23.6486 70.6049 23.9089 70.8843 24.1211L71.3879 24.5024L71.2819 25.712L71.1692 26.9151L70.0029 27.4477C69.3616 27.7389 68.7297 27.9735 68.598 27.9736C68.4663 27.9737 67.7589 28.2584 67.0209 28.6047L65.6756 29.2359L64.1581 28.894C63.3216 28.7077 62.0944 28.3319 61.4345 28.0591C60.7745 27.7862 59.5891 27.437 58.8036 27.2767L57.3789 26.9809L56.7758 27.2044L56.1728 27.4345L55.2119 26.9677L54.2444 26.501L54.1251 26.8165L53.9992 27.1321H53.7076H53.4094V26.9217V26.7113H53.7142C53.8823 26.7113 54.0831 26.615 54.1582 26.4944L54.2908 26.2774L53.5221 25.3373L52.7467 24.3972H52.4419H52.1437L52.0443 24.8705C51.9903 25.1309 51.9073 26.0539 51.8587 26.9217L51.7726 28.4995L51.9714 27.921L52.1702 27.3425H52.4552H52.7401L52.8262 27.6054L52.919 27.8684L53.257 27.5857L53.6016 27.3096L53.8269 27.4411L54.0456 27.5791V27.3556V27.1321H54.3239C54.4756 27.1321 54.8517 27.2504 55.1655 27.3951L55.7354 27.658L55.742 28.0919V28.5193L55.4902 28.7691L55.245 29.0189L55.4968 29.558L55.742 30.1037L55.5234 30.5179L55.298 30.932L55.0992 30.8137L54.9004 30.6888L55.1589 30.2878L55.4107 29.8801L54.7613 29.249L54.1052 28.6179L53.9727 28.7494C53.8975 28.8239 53.8335 29.0632 53.8335 29.2753C53.8335 29.7459 53.7469 29.7498 53.0979 29.3279L52.5877 28.9992L52.1304 29.2424L51.6732 29.4857L50.4273 29.3411L49.1881 29.1964L48.9429 28.9072L48.6978 28.6113L48.817 28.2957L48.9429 27.9736H49.2677H49.5924V28.23V28.4798L49.8442 28.23C49.9823 28.093 50.1119 27.7922 50.1291 27.5594L50.1557 27.1321L49.7713 26.7902L49.3803 26.4418L48.7972 26.3958C48.4756 26.3733 48.0095 26.3416 47.7634 26.3235L47.3194 26.2906L46.5639 25.7844L45.8085 25.2781L45.5036 25.6266L45.1922 25.975L45.0464 26.7837L44.9006 27.5857L45.159 27.8947C45.2999 28.0631 45.7357 28.8267 46.1266 29.5975L46.8356 31.0043V31.6815V32.3652L47.1537 32.6808L47.4718 32.9964L47.2796 33.1147L47.0808 33.2396L46.7959 32.9569C46.6383 32.8006 46.2938 32.5559 46.0338 32.4178L45.5633 32.168V31.6684C45.5633 31.3926 45.5082 31.0164 45.4374 30.8334L45.3048 30.4981H44.6952H44.0789L44.0524 30.8663C44.0197 31.3458 44.0244 31.3625 44.1849 31.9971L44.3174 32.5362L43.721 32.4638C43.3922 32.4244 42.7781 32.3357 42.3559 32.2666L41.5872 32.1417L41.3354 31.3133L41.0902 30.4784L41.2161 30.0708L41.3486 29.6566H41.6203H41.892L42.2698 29.2424L42.6541 28.8283L42.833 28.94L43.0186 29.0518V29.5383V30.0248L42.5945 30.5573C42.3612 30.8515 42.1704 31.1833 42.1704 31.2936V31.4908L42.7005 31.3922L43.2306 31.2936V30.9123C43.2306 30.7038 43.2858 30.3853 43.3566 30.2023L43.4891 29.867H43.8867H44.2909V29.6566C44.2909 29.5399 44.0186 29.165 43.6879 28.8217L43.0915 28.1971L42.2631 28.6113C41.2644 29.1164 41.0254 29.1272 40.2685 28.6836L39.6787 28.3352L39.1817 28.6836L38.6847 29.0255H38.2274H37.7702L37.5051 29.3411L37.24 29.6566H36.7761H36.3189L36.0671 29.9064L35.8219 30.1497L35.3182 29.9262L34.808 29.6961L34.3043 30.5441C34.025 31.0101 33.6142 31.5814 33.3965 31.813L33.0055 32.2337L33.1447 33.2067C33.222 33.7428 33.2998 34.7714 33.3236 35.4946L33.37 36.8094H33.2242C33.1432 36.8094 32.6998 36.1826 32.2368 35.4157L31.3886 34.0219L29.9969 33.4368L28.5987 32.8517L28.4794 33.0424L28.3601 33.233H27.9227H27.492L27.5914 33.7787L27.6974 34.3178L27.2932 34.6925L26.889 35.0673L27.2137 35.3302L27.5384 35.5998L27.5649 36.152L27.5848 36.7043L27.6776 36.369L27.7703 36.0337L28.2938 36.1323C28.5819 36.1869 28.8631 36.3116 28.9234 36.4084L29.036 36.5793L29.3541 36.461L29.6656 36.3427L29.4469 36.9081L29.2348 37.48L29.3475 37.6641L29.4602 37.8482L29.2614 38.2229C29.1528 38.4301 28.9646 38.8343 28.8439 39.1236L28.6252 39.6495L28.6119 38.9527L28.5987 38.2558L28.38 37.8482C28.2593 37.6244 28.0633 37.4406 27.9426 37.4406C27.822 37.4406 27.2903 37.1496 26.7631 36.7897L25.8022 36.1323L25.6034 36.3361L25.4046 36.5333L25.61 37.0658L25.8154 37.6049L25.3118 38.0323L24.8148 38.4662L24.9274 38.9066L25.0467 39.3471L25.4443 39.5641L25.8486 39.7745L25.8022 40.3727L25.7558 40.9775L26.0474 41.326L26.3389 41.6744L26.0407 41.6087L25.7492 41.5429L25.6299 42.2793L25.5106 43.0156L25.007 42.0689C24.7316 41.5482 24.5108 41.0748 24.5166 41.017C24.5223 40.9591 24.4403 40.7461 24.331 40.5436L24.1322 40.1755H23.8208H23.5093V40.3859V40.5962H23.1912H22.8731V40.3859V40.1755H22.3562C22.0722 40.1755 21.5702 40.0754 21.2429 39.952L20.6531 39.7284L20.2158 40.2675C19.9771 40.5645 19.7157 40.8066 19.6326 40.8066H19.4802V40.399V39.9914L18.844 40.2084L18.2079 40.4319V40.7211V41.017H17.956H17.7108L18.1681 41.5035L18.632 41.99V42.5554V43.1208H18.8705H19.1091L18.8507 43.4363L18.5856 43.7453L18.1813 43.5284L17.7705 43.3114L17.8964 43.1076L18.0223 42.9038L18.2741 43.055L18.5259 43.2062L18.2145 42.792C18.0446 42.5673 17.7217 42.2319 17.4922 42.0426L17.0747 41.7007L17.0217 41.3391C16.9927 41.1433 16.9137 40.848 16.8494 40.6817L16.7367 40.3793L16.1668 40.1689L15.5969 39.952L15.4113 40.136L15.2258 40.3201L15.3583 40.6686L15.4975 41.017L16.1602 41.1945L16.8295 41.372L16.3656 41.5166L15.9017 41.6678L15.8222 42.0294L15.7493 42.3844L15.3848 41.7073L15.0204 41.0301L14.5764 40.7935L14.1324 40.5568L13.3438 41.3194L12.5618 42.082L12.4028 41.9242L12.2504 41.7665L12.0781 42.0426L11.9588 42.3121L11.9853 42.4831C12.0061 42.4854 12.0582 42.537 12.0582 42.5948C12.0582 42.6527 12.0171 42.7 11.9588 42.7L10.9118 44.3567L10.4943 44.8301L10.1497 45.3166V46.2304V47.1377L9.68579 48.0186C9.42895 48.5058 9.23521 48.9883 9.26168 49.0836L9.31469 49.2546L9.08275 49.1099L8.85082 48.9719L8.14175 49.1034L7.43931 49.2349L7.18086 49.8528L6.92242 50.4642L6.35251 50.3525L5.77598 50.2407L5.50428 50.5629L5.23258 50.885L5.37175 51.1085L5.51091 51.3255L5.92177 51.1085L6.33263 50.8916V51.0888C6.33263 51.199 6.21718 51.3308 6.07419 51.3781L5.81574 51.4635L5.86876 52.1736L5.92177 52.8902L6.13383 53.0216L6.34589 53.1466L5.57055 53.9749L4.80184 54.7967L4.40423 55.6382L4.00663 56.4797V57.0846L4 57.696L4.444 58.3994L4.88136 59.1094H5.34524H5.80249L6.49168 59.5302L7.18086 59.9444L7.214 60.2073C7.23176 60.3537 7.25367 60.6189 7.26701 60.7925L7.29352 61.108L6.88266 61.2198L6.4718 61.3315L6.38565 61.5748L6.30613 61.818L6.77663 62.0679L7.24713 62.3177L9.86472 62.0416L12.4823 61.772V61.3907V61.016L13.092 61.1343L13.7016 61.2527L14.2318 60.9108L14.7619 60.5689L14.8945 60.9108L15.0336 61.2592L14.7089 61.1409C14.2381 60.9617 14.3217 61.1613 14.8282 61.4302L15.2656 61.6603L15.8885 61.5288L16.5114 61.3907V60.9765C16.5114 60.7477 16.4041 60.1329 16.2728 59.6157L16.0343 58.6755L15.5836 58.8202L15.1396 58.9582L15.4246 58.6164L15.7162 58.2679L15.4577 57.9589L15.2059 57.6565L15.3451 57.2226L15.4776 56.7953H15.7493H16.0144L16.2927 56.2759C16.4458 55.9922 16.6328 55.7824 16.7036 55.8026C16.7743 55.8228 17.0919 55.6602 17.4126 55.4476L17.9958 55.0662V54.7704V54.4811H18.2079H18.4199V54.823V55.1583L19.0031 55.0202C19.3238 54.9434 19.7991 54.8288 20.0567 54.7638L20.5206 54.6455L21.899 55.4081C22.6567 55.8285 23.3417 56.2741 23.4165 56.3943L23.5491 56.6112L23.178 57.0188L22.8069 57.4264H23.1448H23.4894L23.6816 57.078L23.8804 56.7361L24.1322 56.8939L24.384 57.0451L24.3244 57.6039L24.2647 58.1627L24.4172 58.406L24.5696 58.6492L24.1455 58.5375L23.728 58.4323L23.6021 58.7544L23.4762 59.0831L22.8002 59.2212L22.1309 59.3658L21.6008 59.8458C21.3092 60.1121 20.7005 60.4832 20.2489 60.6675L19.4272 61.0028H18.8507H18.2675L17.3397 61.7392L16.4054 62.4689L15.8355 62.4755H15.2656L15.1198 62.7056L14.974 62.9357L14.3709 62.8173L13.7679 62.699L13.642 62.9028C13.5723 63.0147 13.3555 63.1107 13.1582 63.1132H12.8004L12.3365 63.4813L11.8726 63.8429L11.7268 64.4215C11.6488 64.7397 11.6308 65 11.6871 65C11.7434 65 12.2265 64.76 12.754 64.4675L13.7083 63.935L14.8945 63.6325L16.074 63.3236L18.1482 62.3637L20.2224 61.3973L21.8128 60.97C22.6876 60.7377 23.8804 60.4677 24.4636 60.3651C25.0467 60.2625 25.7624 60.1243 26.054 60.0561L26.5841 59.9312L26.107 60.2665C25.8446 60.4531 25.6299 60.6728 25.6299 60.753V60.8976L26.9552 60.9042C27.6842 60.9069 29.6166 60.9327 31.2494 60.9634L34.2182 61.0226L36.6569 60.8516L39.0955 60.6873L39.1154 60.1416C39.1269 59.8406 39.2047 59.4859 39.2877 59.3527L39.4401 59.1094L39.8377 59.3198C40.0562 59.4358 40.3841 59.5302 40.5667 59.5302H40.898V59.162L40.9046 58.7939L41.1101 59.1094C41.2231 59.283 41.3204 59.5361 41.3221 59.6683V59.9049L40.7721 60.043L40.2221 60.181L39.7118 60.6873C39.4303 60.9666 39.2016 61.291 39.2016 61.4039V61.6077L40.845 61.016C41.7489 60.6903 43.061 60.3061 43.7608 60.1679C45.682 59.7884 46.8043 59.5225 48.3001 59.0831L49.6586 58.6821L49.7647 58.7939L49.8707 58.8991L50.1026 58.715C50.23 58.6157 51.0026 58.3201 51.819 58.0575C52.6354 57.795 53.5698 57.4505 53.8932 57.2884C54.6433 56.9122 57.5757 56.1749 58.3397 56.1707L58.9229 56.1642V55.888V55.6119L60.0362 55.6448C60.6485 55.6625 61.4998 55.7483 61.9248 55.8354L62.6936 55.9932L63.1243 55.7631L63.555 55.5396L63.8135 54.7507C63.9564 54.3159 64.1784 53.891 64.3039 53.8106L64.5292 53.6659L64.3635 53.5016L64.2045 53.3372L64.0388 53.6002L63.8731 53.8632L63.5418 53.7382L63.2038 53.6133L63.0514 53.8632L62.899 54.1064L62.7598 53.8895L62.6273 53.6659L61.62 53.9946L60.6194 54.3234V54.6126V54.9019L61.2025 54.9085H61.7857L61.4676 55.1123C61.2926 55.2244 60.9825 55.3205 60.7784 55.3226H60.4073L60.4272 55.1649C60.4398 55.0781 60.3858 54.7941 60.3013 54.5337L60.1489 54.0604H59.9501H59.7513L59.8175 54.3299L59.8772 54.5995L59.5723 54.9216L59.2609 55.2503L58.638 54.9413L58.0084 54.6323L57.7566 54.9742C57.6159 55.1651 57.4282 55.3226 57.3457 55.3226H57.1999L57.3258 54.9282L57.4518 54.5337L57.0078 54.422L56.5638 54.3036L55.8878 54.5863L55.2119 54.869L54.6287 55.5133C53.957 56.2613 53.9233 56.3745 54.3769 56.3745H54.7083L54.5956 56.5586L54.4829 56.7427L53.9329 56.6375L53.3895 56.5323L53.4558 56.8216L53.5154 57.1109L52.9323 57.0451L52.3491 56.9794V57.1503V57.3212H51.7129H51.0768V57.1634V57.0057H51.4081H51.7461L52.0708 56.6835C52.4585 56.2988 52.4258 56.2431 51.6599 56.0524L51.0768 55.9078V56.3745V56.8413L50.7388 56.7164L50.4075 56.5849L49.5924 56.7164L48.7839 56.8479L48.6779 57.2423L48.5718 57.6368H48.0218H47.4718V57.9524C47.4718 58.1259 47.4344 58.2679 47.3856 58.2679C47.3369 58.2679 47.1407 58.3287 46.9549 58.3994L46.6169 58.5243L46.7627 58.143L46.9151 57.7683L46.1995 58.2679L45.4838 58.7741L45.6759 58.4717C45.7793 58.3057 46.132 57.9483 46.4579 57.6762C46.7838 57.4042 47.0477 57.0916 47.0477 56.9794V56.769L46.8356 56.9005L46.6236 57.032L46.3983 56.8939L46.1729 56.7558L46.5573 56.4797L46.9417 56.197L46.3386 55.9669L45.7422 55.7434L45.5368 55.8683L45.3313 55.9932L45.4506 56.3614L45.5699 56.7361L45.2518 57.0057L44.9271 57.2686L44.9602 56.3811L45 55.4936L45.3844 55.2503L45.7753 55.0137V54.7507V54.4811H46.3055H46.8356V54.251V54.0144L47.22 54.4877L47.6043 54.9545L47.9688 54.5863L48.3399 54.2247L49.1815 54.3562L50.0165 54.4877V54.1853V53.8895L51.2358 53.942L52.4552 54.0012L52.6672 53.8829C52.7838 53.8156 52.9747 53.7475 53.0913 53.7382C53.6279 53.6958 54.6241 53.3357 55.1059 53.0085L55.636 52.6469L55.9011 52.7389L56.1662 52.8376V52.6075V52.3774H56.4445C56.5974 52.3774 56.9297 52.188 57.1801 51.9566L57.6307 51.5359H58.1741H58.7108L58.6578 51.2729L58.6048 51.0099L59.9169 51.0757L61.2224 51.148L62.3887 50.2341L63.555 49.3269L63.5749 49.0968L63.5882 48.8733L64.1183 48.63L64.6485 48.3933V48.1764V47.9594H65.0726H65.4901L65.4437 48.4328L65.3907 48.9061L65.881 48.9785L66.3714 49.0442L66.6232 48.8338L66.8751 48.63L67.2793 48.9193L67.6769 49.2086L67.8492 49.1099L68.0149 49.0048L68.8631 49.4452L69.7113 49.8857L70.4005 49.8134L71.0897 49.7476L71.262 49.1034L71.4277 48.4525L71.8584 48.0712C72.0934 47.8602 72.2825 47.5973 72.2825 47.4927V47.302L72.0837 47.4269L71.8849 47.5518L71.1825 47.2363L70.48 46.9273L71.7656 46.993L73.0579 47.0588L73.6079 47.4203L74.1645 47.7819L74.973 47.657C76.658 47.3985 77.1687 47.278 77.2725 47.1114L77.3785 46.9404L78.5449 46.7958L79.7045 46.6512L79.7112 46.3093V45.9609L80.0823 45.5138L80.4467 45.0668L81.9046 44.9418L83.3559 44.8169L84.6017 45.2311C85.2848 45.4594 85.9934 45.6453 86.1789 45.6453H86.5169L86.4042 45.4678L86.2982 45.2969L87.1133 44.5014L87.9284 43.7125L88.5844 43.8505L89.2405 43.9951L89.658 43.8637L90.0755 43.7322L90.2213 43.272L90.3671 42.8118L90.5791 43.3377C90.6969 43.6251 90.8539 44.2831 90.9237 44.8038L91.0496 45.7505L91.54 45.8228L92.0304 45.8885L91.9442 46.1384L91.8581 46.3816L91.5599 46.4145C91.395 46.4301 91.0047 46.4537 90.6918 46.4671L90.1219 46.4868L89.996 46.8944L89.8634 47.3086L89.0285 47.2757L88.1935 47.2428L87.9218 47.5716C87.7742 47.7518 87.3227 48.021 86.9145 48.1764C86.5063 48.3318 85.8666 48.6842 85.4964 48.9587L84.8271 49.4584L84.4361 49.3926L84.0517 49.3269L84.0981 49.5767L84.1445 49.8265L83.4686 49.9712L82.786 50.1224L82.5673 50.3919C82.0888 50.9955 78.9893 52.3815 77.405 52.6995C77.0138 52.778 76.2981 53.0138 75.8146 53.2254L74.9333 53.6133L73.4488 53.8632L71.9644 54.113L71.6994 54.3234L71.4343 54.5337L70.818 54.4154L70.2017 54.2905L69.9101 54.731L69.6119 55.1649L68.4589 55.224L67.2992 55.2766L66.4576 55.7237L65.616 56.1642H65.1256C64.8549 56.1642 64.2802 56.3117 63.8466 56.4929L63.058 56.8216L61.3616 56.7887C60.4285 56.7696 59.5458 56.764 59.4 56.7756L59.135 56.7953V57.1437V57.4922L61.3086 57.3607L63.4821 57.2292L65.2846 56.7295C70.706 55.2256 77.0767 53.3059 78.7503 52.6666C79.8 52.2657 81.6751 51.4211 82.9185 50.793C85.6809 49.3975 90.565 47.2313 94.1245 45.8228C95.5824 45.2459 97.1569 44.6023 97.6234 44.3962C98.0899 44.19 99.6167 43.6369 101.016 43.1668C104.753 41.9115 109.56 40.211 114.482 38.3938C116.873 37.5112 119.378 36.5913 120.048 36.3558L121.268 35.9285V35.7444V35.5603L120.612 35.6918L119.956 35.8233L119.764 35.5275C119.66 35.366 119.573 35.044 119.571 34.8109V34.3835L119.995 33.6012C120.229 33.1694 120.42 32.7308 120.42 32.6282V32.4441L119.995 32.3324L119.571 32.2206V31.9905V31.7604H120.652H121.732L122.878 32.0957L124.025 32.4244V32.8189V33.2133L124.502 33.542L124.979 33.8773L124.661 34.0811C124.486 34.1918 124.182 34.2832 123.985 34.2849H123.627L123.494 34.4953L123.362 34.7057H122.978H122.6L122.037 35.1462C121.729 35.386 121.48 35.6574 121.48 35.751V35.9219L124.926 34.3967C128.517 32.8065 130.895 31.6535 139.399 27.4082C144.421 24.9008 149.396 22.5038 149.577 22.5038C149.802 22.5038 155.973 19.685 158.484 18.4343C161.116 17.123 162.839 16.4161 163.414 16.4094C163.56 16.4077 164.349 16.0952 165.164 15.7191L166.642 15.0354L166.648 14.7724C166.649 14.6278 166.72 14.5103 166.807 14.5095C166.895 14.5087 167.199 14.1732 167.483 13.76L168 13.0039L167.695 12.8133C167.385 12.6184 166.571 12.5419 165.535 12.6095L164.958 12.6489L164.706 12.1098C164.42 11.4868 164.358 11.4668 163.799 11.8863L163.388 12.1953L162.95 12.2085C162.71 12.2161 161.998 12.3916 161.367 12.5963L160.214 12.9711L160.054 13.405L159.889 13.8389L160.121 14.5883L160.353 15.3378L160.081 15.66L159.809 15.9821H159.299H158.789L158.669 15.6665L158.544 15.351H158.04H157.53L157.523 15.5087C157.52 15.5955 157.14 16.0925 156.675 16.6132C156.21 17.1339 155.721 17.6907 155.588 17.8492L155.343 18.1385L154.196 18.007L153.05 17.8689L152.785 18.1385C152.639 18.2849 152.461 18.5629 152.387 18.7564L152.255 19.1049L151.764 19.1772L151.274 19.2429L150.982 19.9069L150.684 20.571L150.214 20.7813L149.743 20.9983L149.246 20.7485L148.743 20.4986L148.272 19.7689C148.013 19.3656 147.604 18.7813 147.364 18.4738L146.927 17.9149V17.08V16.2451L146.072 15.4759L145.21 14.7067L144.594 15.0683L143.978 15.4299L143.733 16.0084L143.494 16.5869L142.858 16.8105L142.222 17.0274L141.765 16.7907C141.514 16.6598 141.082 16.3738 140.804 16.1596L140.293 15.7717L139.319 15.7914C138.781 15.803 138.1 15.8951 137.808 15.9952L137.278 16.1793L138.199 16.061L139.127 15.9361L138.975 17.0669C138.89 17.6866 138.731 18.3567 138.623 18.5592L138.431 18.9274H137.835H137.238L136.987 19.4796L136.735 20.0319L135.86 19.8938C135.379 19.8176 134.908 19.7087 134.813 19.6506L134.641 19.5454L134.767 18.934L134.886 18.3291L134.548 17.8492L134.203 17.3627V16.8959V16.4226L133.905 16.2582L133.6 16.0873L133.454 15.5087L133.309 14.9302H133.746H134.19L134.415 15.351L134.641 15.7717L135.244 16.0807L135.847 16.3897L136.006 16.2385L136.158 16.0873L136.019 16.7513L135.873 17.4153L136.112 17.5599L136.344 17.7046L136.655 17.5862L136.96 17.4679L136.483 16.4949L136.012 15.5285L136.357 15.2721L136.708 15.0223L136.417 14.5029C136.258 14.2179 136.123 13.8114 136.118 13.5956L136.112 13.2012L135.635 13.5102L135.158 13.8126L134.893 13.7271L134.627 13.6351L134.76 13.4181L134.893 13.2077L134.455 13.4378C134.215 13.5651 133.91 13.6679 133.779 13.6679H133.541L133.68 13.4444L133.819 13.2209L133.508 12.8659C133.335 12.6707 133.13 12.2979 133.05 12.0375L132.904 11.5642H133.037C133.111 11.5642 133.355 11.6613 133.58 11.7811L133.991 11.9981V12.4123V12.8264H134.203H134.415V12.5109C134.415 12.1035 134.626 12.1086 134.932 12.524L135.171 12.8527L135.747 12.9185L136.324 12.9776V12.6161V12.2479L135.515 12.123C135.071 12.0525 134.401 11.8424 134.024 11.6562L133.342 11.3144L132.977 10.5517L132.613 9.78254L132.242 9.71023L131.871 9.64448L131.725 10.0258C131.647 10.2368 131.456 10.4851 131.301 10.578L131.022 10.749L131.148 11.2618L131.281 11.7746H131.089C130.983 11.7746 130.784 11.6631 130.645 11.5247L130.386 11.2749L130.075 11.6825C129.903 11.9077 129.76 12.2484 129.757 12.4386L129.75 12.7804L129.379 12.9448C129.175 13.0328 128.841 13.0816 128.637 13.0565L128.266 13.0105V13.2012C128.266 13.3062 128.457 13.5637 128.69 13.7731L129.114 14.1544V14.6475V15.134L129.949 15.6863L130.784 16.2319L131.221 16.0939L131.659 15.9558V15.7323V15.5087L131.327 15.7849L130.989 16.061L130.804 15.7586L130.612 15.4562L130.976 15.3181C131.176 15.2394 131.459 15.1619 131.606 15.1537L131.877 15.1406L132.235 15.5613L132.6 15.9821H132.977H133.355V16.1793V16.3766L132.898 16.4423L132.447 16.508L132.222 16.8565L132.003 17.2049L132.653 18.1976L133.302 19.1838L133.203 19.5717C133.147 19.7832 132.931 20.1113 132.719 20.3014L132.328 20.6433L131.771 20.2817L131.215 19.9201L130.969 20.1568L130.724 20.4H130.134H129.538V19.9727C129.538 19.4797 128.943 17.9797 128.802 18.1187C128.751 18.17 128.851 18.6285 129.028 19.1378L129.353 20.0582L129.227 20.5644C129.157 20.8414 128.705 21.6996 128.226 22.4709C127.747 23.2422 127.219 24.1317 127.053 24.4498L126.748 25.0283L126.291 25.1335C126.037 25.1899 125.402 25.2608 124.879 25.2913L123.925 25.3439L123.607 26.7508L123.282 28.1577L122.374 29.111L121.467 30.0642L120.612 30.3206L119.757 30.577L117.855 29.5909L115.96 28.6047H115.549H115.145L115.012 28.3944C114.94 28.2786 114.81 28.184 114.721 28.184H114.555L114.568 28.6573L114.588 29.1307L113.634 29.0847L112.686 29.0452L112.448 28.7165L112.209 28.3944H111.871H111.526L111.301 28.8217L111.069 29.249L110.864 29.1241C110.573 28.9457 110.616 28.6862 110.996 28.3089L111.334 27.9736L110.731 27.9605L110.135 27.9473L110.605 27.7238L111.082 27.4937L111.188 27.1452L111.301 26.8034L111.758 26.7705C112.01 26.7517 112.384 26.8208 112.587 26.9283L112.951 27.1255L113.216 26.81L113.481 26.4944L113.727 26.5536L113.978 26.6061L115.184 25.3768L116.391 24.1408V23.8581V23.5688L117.047 22.8259L117.709 22.083H117.974C118.12 22.083 118.67 21.8566 119.2 21.5768L120.168 21.064L121.036 21.1824L121.904 21.3007V20.6827V20.0647L122.156 19.8149C122.296 19.6761 122.534 19.5585 122.686 19.5585H122.964V19.8609V20.1568L123.813 20.8208C124.279 21.1873 124.661 21.4297 124.661 21.3599C124.661 21.29 124.422 20.6517 124.131 19.9398C123.839 19.2279 123.6 18.4608 123.6 18.2371V17.8295L124.078 17.2707L124.561 16.7053L125.509 16.9814L126.463 17.2575L127.298 17.1983L128.14 17.1392L128.16 16.2845L128.18 15.4299L127.378 15.18C126.936 15.0434 126.435 14.9302 126.258 14.9302H125.933V14.7067C125.933 14.5829 126.216 14.075 126.563 13.5759L127.192 12.6687L127.749 12.5306L128.299 12.3925L128.71 12.5174L129.114 12.6489V12.4714C129.114 12.3737 128.975 12.0916 128.802 11.8469L128.484 11.3998L128.789 11.15L129.094 10.9002L129.525 11.0382L129.962 11.1763V10.7424V10.3151L130.492 9.96662L131.022 9.62476V9.33549V9.03965H131.321H131.619L132.162 8.14555C132.857 7.00885 133.467 6.30474 133.753 6.30474H133.978L134.19 6.6992L134.402 7.08708L135.045 7.35663C135.826 7.67757 135.835 7.77736 135.158 8.40852C134.33 9.18022 134.695 9.14614 135.847 8.34277C136.422 7.94135 137.071 7.57624 137.291 7.53414L137.696 7.46182L138.312 6.30474C138.65 5.66953 139.136 4.94939 139.399 4.70719L139.876 4.26671ZM146.185 6.09437C146.126 6.09437 146.079 6.1417 146.079 6.19955C146.079 6.25741 146.126 6.30474 146.185 6.30474C146.243 6.30474 146.291 6.25741 146.291 6.19955C146.291 6.1417 146.243 6.09437 146.185 6.09437ZM147.437 7.94832V8.71751V9.48013L146.814 9.9732L146.198 10.4597L146.45 10.7687L146.708 11.0711L147.318 10.9856L147.934 10.8936L148.597 11.2355L149.259 11.5773L149.564 12.3071L149.876 13.0368L149.763 14.2465L149.65 15.4496L150.041 14.9236C150.258 14.6364 150.556 14.0713 150.697 13.6614L150.949 12.9119L150.757 12.2479L150.565 11.5773L150.989 11.0448L151.406 10.5189L151.274 10.3019C151.201 10.1851 151.016 10.0915 150.863 10.0915C150.71 10.0915 150.12 9.89361 149.551 9.65106L148.517 9.21058L147.974 8.57945L147.437 7.94832ZM162.308 13.0631C162.403 13.0432 162.573 13.1085 162.924 13.2406L163.467 13.4444V13.7666V14.0887H163.659C163.764 14.0887 163.895 14.2222 163.958 14.3845L164.077 14.6804L163.825 14.996L163.573 15.3115L163.129 15.1011L162.692 14.8973L162.374 14.3385L162.056 13.7731L162.142 13.405C162.192 13.1894 162.212 13.083 162.308 13.0631ZM149.558 15.5942L149.524 16.4686L149.491 17.343L149.266 17.4153C149.144 17.4555 149.047 17.6 149.047 17.7309V17.9675L149.339 17.6585L149.637 17.3496L149.77 16.5738L149.909 15.8046L149.737 15.6994L149.558 15.5942ZM141.818 17.1852L142.487 17.3233C142.857 17.3968 143.246 17.4547 143.348 17.4547H143.534V18.099V18.7433L143.315 19.1509C143.194 19.3747 143.004 19.5585 142.891 19.5585H142.686V19.2561C142.686 19.0908 142.556 18.8316 142.401 18.6776C142.245 18.5235 142.054 18.1228 141.97 17.79L141.818 17.1852ZM146.291 17.2444H146.456H146.622L146.655 17.6651L146.688 18.0859H146.489H146.291V17.6651V17.2444ZM153.242 18.099L153.799 18.6118L154.349 19.118V19.4073V19.7031L153.805 19.9464C153.508 20.0807 153.146 20.1896 152.997 20.1896H152.725L152.745 19.4007L152.758 18.6118L153.004 18.3554L153.242 18.099ZM138.02 19.1378H138.246H138.471L138.338 19.3481C138.266 19.4638 138.165 19.5585 138.113 19.5585C138.062 19.5585 138.02 19.4638 138.02 19.3481V19.1378ZM122.726 22.3L122.209 22.346L121.692 22.3855V22.563C121.692 22.9088 122.173 23.6633 122.62 24.0225C122.868 24.2224 123.105 24.388 123.143 24.3906C123.214 24.3953 123.023 23.3416 122.832 22.6681L122.726 22.3ZM73.1771 23.7135L73.3494 23.9896L73.5284 24.2723L73.4223 24.4366C73.3648 24.5289 73.1795 24.6076 73.0115 24.6076H72.7066V24.3051C72.7066 24.1384 72.8155 23.9376 72.9452 23.8581L73.1771 23.7135ZM79.5322 23.7661C79.6107 23.7638 79.7016 23.7661 79.8039 23.7661H80.5395L80.4004 24.1342C80.3251 24.3367 80.161 24.5751 80.0359 24.6602C79.6974 24.8901 79.6216 24.8549 79.3334 24.3972C79.0053 23.8759 78.9833 23.7815 79.5322 23.7661ZM74.8604 24.5024L74.7742 24.8048C74.64 25.2973 73.7669 25.2684 73.7669 24.7719V24.555L74.0983 24.8311L74.4362 25.1072L74.6483 24.8048L74.8604 24.5024ZM139.545 25.4491H139.717H139.896L140.042 26.0934L140.181 26.7442L140.061 26.8625L139.942 26.9809L139.849 26.6916C139.799 26.5304 139.708 26.1828 139.651 25.9224L139.545 25.4491ZM45.4572 25.8698C45.5156 25.8698 45.5633 25.9172 45.5633 25.975C45.5633 26.0329 45.5156 26.0802 45.4572 26.0802C45.3989 26.0802 45.3512 26.0329 45.3512 25.975C45.3512 25.9172 45.3989 25.8698 45.4572 25.8698ZM109.605 28.1117L109.744 28.2563L109.89 28.3944H109.605H109.32L109.465 28.2563L109.605 28.1117ZM69.4198 28.4601L69.4463 29.4791C69.4594 30.039 69.442 30.4981 69.4131 30.4981C69.3843 30.4981 69.2105 30.264 69.0221 29.9788L68.6776 29.4594V29.0584V28.6508L69.0487 28.5587L69.4198 28.4601ZM131.871 28.5784L132.083 28.7099C132.199 28.7814 132.295 28.8824 132.295 28.9334C132.295 28.9845 132.199 29.0255 132.083 29.0255H131.871V28.802V28.5784ZM49.0622 28.6047C49.0039 28.6047 48.9562 28.6521 48.9562 28.7099C48.9562 28.7678 49.0039 28.8151 49.0622 28.8151C49.1205 28.8151 49.1683 28.7678 49.1683 28.7099C49.1683 28.6521 49.1205 28.6047 49.0622 28.6047ZM135.025 28.8151H135.37H135.714L135.582 29.0255C135.51 29.1412 135.414 29.2359 135.37 29.2359C135.325 29.2359 135.23 29.1412 135.158 29.0255L135.025 28.8151ZM132.321 29.2359L132.732 29.4528L133.143 29.6698V29.9327V30.2023L132.414 30.531L131.679 30.8597L131.46 30.6362C131.337 30.5143 131.235 30.2605 131.235 30.0708V29.7224L131.778 29.4791L132.321 29.2359ZM49.7117 29.6566C49.7631 29.6566 49.8044 29.7513 49.8044 29.867V30.0774H49.5791H49.3538L49.4863 29.867C49.5584 29.7513 49.6602 29.6566 49.7117 29.6566ZM65.7353 29.6895L66.4443 30.1037L67.1534 30.5179L67.2859 30.8531C67.456 31.2928 67.2835 31.4535 67.054 31.0701C66.9558 30.9061 66.6141 30.6078 66.2985 30.4061L65.7286 30.0379L65.4503 30.2023L65.1786 30.3666L65.4569 30.0248L65.7353 29.6895ZM50.0165 29.7947L50.1557 29.9393L50.3014 30.0774L50.1557 30.2154L50.0165 30.3601V30.0774V29.7947ZM125.297 32.9701L125.615 33.233C125.79 33.3771 125.933 33.5173 125.933 33.5486C125.933 33.5799 125.79 33.6661 125.615 33.7327L125.297 33.851V33.4105V32.9701ZM116.603 33.3777L117.027 33.759L117.451 34.1403L117.206 34.4296L116.96 34.7254L117.153 34.9029C117.258 35.0007 117.584 35.1506 117.875 35.2382L118.398 35.396L118.113 35.0541L117.822 34.7057H118.273H118.723L119.147 35.1264L119.571 35.5472V35.8627V36.1783H118.75H117.928L117.636 36.5991L117.345 37.0264L116.391 37.1513C115.866 37.2208 114.959 37.4589 114.376 37.6773C113.213 38.1127 112.914 38.168 113.455 37.8548L113.806 37.651L113.693 37.2302L113.587 36.8094H113.925H114.27V36.1717V35.534L114.681 35.751C114.906 35.8708 115.288 35.9679 115.529 35.9679H115.966V35.3631V34.7583L116.284 34.4953L116.603 34.2323V33.805V33.3777ZM119.147 35.6852L119.008 35.8299L118.862 35.9679H119.147H119.432L119.286 35.8299L119.147 35.6852ZM33.2639 37.2302H33.476H33.6881V38.1769C33.6881 38.6976 33.6477 39.1236 33.6019 39.1236C33.4403 39.1236 33.2639 38.4483 33.2639 37.8416V37.2302ZM110.347 38.3084C110.436 38.2797 110.578 38.4063 110.857 38.6831L111.261 39.0842L111.023 39.3143C110.732 39.603 110.615 39.5963 110.34 39.2748L110.122 39.0184L110.194 38.6502C110.236 38.4473 110.278 38.3307 110.347 38.3084ZM102.772 38.499L102.878 38.8935L102.978 39.288L103.481 39.6167C103.758 39.7942 104.248 39.9986 104.568 40.0769L105.151 40.2215V39.8533V39.4918L105.808 39.6232L106.457 39.7482L106.868 39.5312L107.279 39.3143L107.796 39.6956C108.082 39.9027 108.322 40.1413 108.326 40.2281L108.332 40.3859H107.921C107.696 40.3859 107.243 40.4974 106.914 40.6357C106.586 40.774 106.222 40.8946 106.106 40.9052C105.989 40.9159 105.629 41.1051 105.304 41.3194L104.714 41.7073L103.574 41.7599L102.434 41.8059L101.937 42.2727C101.665 42.5276 101.28 42.8235 101.083 42.9301L100.725 43.1208L100.592 42.9104L100.46 42.7L99.85 43.0156L99.2337 43.3311H98.4716H97.7096L97.3915 43.5941C97.2158 43.7387 96.8991 44.0263 96.689 44.2318L96.3113 44.6066L95.5956 44.8104L94.8733 45.0142L94.5022 44.8958L94.1245 44.7775V45.1128V45.4481L93.5811 45.6519C93.2819 45.7647 92.8525 45.8557 92.6268 45.8557H92.2159V45.573V45.2969H92.8389H93.4684L94.1576 44.6263L94.8401 43.9623H95.2974H95.7546L96.1257 43.5547L96.4968 43.1536L96.3444 42.6803C96.261 42.4196 95.9177 41.8247 95.5824 41.3654C95.247 40.9062 94.9727 40.4465 94.9727 40.3398V40.1426L95.2908 40.4582C95.4657 40.6317 95.6089 40.8606 95.6089 40.9644C95.6089 41.0682 95.8388 41.3671 96.1191 41.6284L96.6294 42.1017L96.8348 41.7336L97.0469 41.3654L97.862 41.3983C98.3129 41.4173 98.9181 41.4808 99.2006 41.5364L99.7108 41.635L100.214 41.5101L100.718 41.3852L100.36 40.9907L99.9958 40.5962H100.228C100.356 40.5962 100.52 40.6909 100.592 40.8066C100.664 40.9223 100.862 41.017 101.03 41.017H101.334V40.7211V40.4319L101.016 40.307L100.698 40.1886V39.8665V39.5443H100.977C101.128 39.5443 101.355 39.65 101.487 39.781L101.732 40.0177L102.063 39.8928L102.395 39.7679V39.2485V38.7291L102.58 38.6108L102.772 38.499ZM109.313 39.5443C109.371 39.5443 109.359 39.639 109.287 39.7547C109.214 39.8704 109.106 39.9651 109.048 39.9651C108.99 39.9651 109.002 39.8704 109.075 39.7547C109.147 39.639 109.255 39.5443 109.313 39.5443ZM101.546 41.6218V41.8454V42.0689H101.759C101.875 42.0689 101.971 42.0279 101.971 41.9768C101.971 41.9258 101.875 41.8248 101.759 41.7533L101.546 41.6218ZM100.248 42.0689L100.38 42.2793C100.452 42.395 100.649 42.4896 100.818 42.4896H101.122V42.2793V42.0689H100.685H100.248ZM88.5977 46.4868C88.488 46.4868 88.3989 46.5815 88.3989 46.6972V46.9076H88.7302H89.0616L88.929 46.6972C88.857 46.5815 88.7075 46.4868 88.5977 46.4868ZM67.0076 53.4292L66.8817 53.6265L66.7624 53.8237L67.1335 54.0341L67.5112 54.2445L67.7034 54.0604L67.8956 53.8697L68.2932 54.0801L68.6842 54.2905L68.9029 54.159L69.1215 54.0209L69.0487 53.7974L68.9691 53.5673L68.3992 53.5476L67.8293 53.5213V53.6922V53.8632L67.4185 53.6462L67.0076 53.4292ZM64.622 54.2708L64.7545 54.4811C64.8266 54.5968 65.0302 54.6915 65.2051 54.6915H65.5232L65.3907 54.4811C65.3186 54.3654 65.115 54.2708 64.94 54.2708H64.622ZM41.7065 55.0268L42.0577 55.3161L42.4156 55.6119L42.5547 55.4081L42.7005 55.2109L43.4427 55.579C43.8509 55.7836 44.1532 56.0023 44.112 56.0655C44.0708 56.1288 44.152 56.4664 44.2976 56.815L44.5626 57.4527L44.3241 57.6894L44.0855 57.9261L43.9463 57.2358L43.8072 56.5455L43.2174 56.6638L42.621 56.7756L42.5216 56.5257L42.4156 56.2693L42.2101 56.5586L42.0113 56.8479L41.6005 56.4403L41.1896 56.0327L40.9643 56.105L40.739 56.1839L40.5998 55.8289C40.4171 55.3564 40.6057 55.2017 40.9842 55.5133L41.289 55.7697L41.4944 55.395L41.7065 55.0268ZM51.1828 55.0925L51.1099 55.441L51.037 55.7894L51.322 55.6974L51.6069 55.6053V55.3555V55.1123L51.3949 55.0991L51.1828 55.0925ZM52.9323 55.533L53.1973 55.8486C53.3425 56.0221 53.5456 56.1642 53.648 56.1642H53.8335V55.8486V55.533H53.3829H52.9323ZM20.4146 55.5593L20.1296 55.7368L19.8447 55.9143L19.9706 56.5455L20.0965 57.1766L19.7917 57.2949L19.4802 57.4133V57.7354V58.0575H19.8778H20.2754L20.5074 58.3337L20.7327 58.6032L20.4477 59.1555L20.1561 59.7077L20.2754 59.8326C20.342 59.8986 20.4854 59.9509 20.5935 59.9509H20.7923L20.905 59.5105L21.0242 59.0766L21.1965 59.3461L21.3688 59.6222L21.5146 59.4776L21.6604 59.333L21.4484 59.0634L21.2297 58.7939L21.2164 58.1233L21.2032 57.4527L20.9845 57.0451L20.7658 56.6375L20.8851 56.5192L21.011 56.4008L20.7128 55.9801L20.4146 55.5593ZM26.3058 55.9406L26.213 56.2102C26.1637 56.357 25.8206 56.6534 25.4509 56.8676L24.7816 57.2555V56.9596V56.6638L25.5437 56.3022L26.3058 55.9406ZM37.7172 56.1642H37.9425H38.1678L38.0419 56.5652L37.9093 56.9728L38.128 57.0977L38.3401 57.2292L37.9226 57.6434L37.5051 58.0575V58.36C37.5051 58.5253 37.6482 58.7978 37.8232 58.9714C37.9981 59.1449 38.1413 59.3339 38.1413 59.3856C38.1413 59.4372 37.892 59.4776 37.5912 59.4776H37.0478L36.8689 59.0305C36.7709 58.7847 36.6415 58.4178 36.5773 58.2153L36.4581 57.8472H36.1068H35.749L35.252 58.3863L34.7483 58.9188V58.6361V58.3468L35.3845 57.88L36.0207 57.4133L36.0273 56.9465L36.0339 56.4797L36.2526 56.8479L36.4647 57.216H37.0942H37.7172V56.6901V56.1642ZM17.3928 56.5126L16.9024 56.8347L16.4054 57.1634L16.3325 57.5185L16.2596 57.88L16.7566 57.8143L17.2536 57.742L17.3265 57.124L17.3928 56.5126ZM31.5476 56.5323L31.8789 56.6572L32.2037 56.7821V56.9991C32.2037 57.2662 31.9846 57.2698 31.5741 57.0122L31.2626 56.815L31.4084 56.6769L31.5476 56.5323ZM30.0897 57.3212L30.0367 57.9392L29.977 58.5506L29.712 58.6361L29.4469 58.7216V58.4323C29.4469 58.2712 29.594 57.9534 29.7716 57.7288L30.0897 57.3212ZM42.5945 57.3541L42.7336 57.4987L42.8794 57.6368H42.5945H42.3095L42.4553 57.4987L42.5945 57.3541ZM43.5222 57.4922C43.5799 57.477 43.6672 57.5792 43.7277 57.7354C43.871 58.1061 43.7512 58.1697 43.5421 57.834C43.4652 57.7106 43.4468 57.5604 43.5023 57.5053C43.5093 57.4984 43.514 57.4943 43.5222 57.4922ZM44.7813 57.6565L45.1789 57.8669L45.5765 58.0773L45.444 58.2877L45.3115 58.498L45.053 58.2877L44.8012 58.0773L44.2644 58.5638C43.9725 58.8324 43.5163 59.1656 43.2505 59.3067L42.7734 59.5631L42.6541 59.4513L42.5415 59.333L42.1439 59.5433L41.7462 59.7537V59.5302V59.3132L42.2565 59.0831L42.7601 58.853L42.9987 58.3994L43.2373 57.9524L43.1246 58.5309L43.012 59.1094H43.1843C43.2802 59.1094 43.6818 58.7794 44.0723 58.3797L44.7813 57.6565ZM31.7729 57.742L31.7795 58.005V58.2679H32.1308H32.4886L32.3296 58.4257C32.2421 58.5125 32.058 58.5835 31.9253 58.5835H31.6868L31.4217 59.1094L31.1566 59.6354L31.9452 59.7471L32.7338 59.8589L31.8856 60.0298C31.6351 60.0794 31.1834 60.1314 30.6795 60.181L30.8187 59.9641L30.9711 59.7143L30.6198 59.3264L30.262 58.9319L30.7524 58.8662L31.2361 58.7939L31.5078 58.2679L31.7729 57.742ZM40.4341 57.8735L40.5534 57.9984L40.6727 58.1167L40.56 58.2942C40.498 58.3938 40.3106 58.4783 40.1426 58.4783H39.8377V58.2877C39.8377 58.1843 39.9724 58.0541 40.1359 57.9918L40.4341 57.8735ZM39.3208 58.0904C39.3819 58.0758 39.4735 58.1827 39.5395 58.3534C39.615 58.5485 39.631 58.7557 39.5727 58.8136C39.5143 58.8714 39.4029 58.7589 39.3275 58.5638C39.252 58.3686 39.236 58.1614 39.2943 58.1036C39.3016 58.0963 39.3121 58.0925 39.3208 58.0904ZM24.1455 58.8267L24.2846 58.9714L24.4304 59.1094L24.2846 59.2475L24.1455 59.3921V59.1094V58.8267ZM45.603 58.853L45.8085 59.0568L46.0139 59.2606L45.5765 59.379L45.1392 59.4907V59.3132C45.1392 59.2152 45.2443 59.0689 45.3711 58.9911L45.603 58.853ZM37.081 58.8728V59.0963V59.3198H37.293C37.4097 59.3198 37.5051 59.2788 37.5051 59.2278C37.5051 59.1768 37.4097 59.0758 37.293 59.0042L37.081 58.8728ZM35.4044 58.8991H35.7159H36.0207V59.1094C36.0207 59.2251 35.9491 59.3072 35.8616 59.2935C35.7742 59.2798 35.6072 59.2845 35.4905 59.3001L35.2785 59.3264L35.5634 59.5039L35.855 59.688L35.6695 59.7734C35.5695 59.8209 35.0611 59.8009 34.5363 59.7274L33.582 59.5959L34.0061 59.5302C34.2394 59.4947 34.5735 59.4741 34.7483 59.4842L35.0664 59.5039L35.2387 59.2015L35.4044 58.8991ZM18.0289 59.1094C17.8151 59.1094 17.5822 59.1714 17.5054 59.2475L17.3663 59.3856L17.5916 59.6551L17.8169 59.9246L18.1151 59.8129L18.4199 59.6945V59.4053V59.1094H18.0289ZM36.6569 59.4579L36.796 59.6025L36.9418 59.7406H36.6569H36.3719L36.5177 59.6025L36.6569 59.4579ZM19.5001 59.688L19.1555 59.8195L18.8175 59.9509L18.9501 60.1613C19.1219 60.4371 19.4168 60.4308 19.5929 60.1482L19.732 59.9246L19.6194 59.8063L19.5001 59.688ZM27.0082 59.9378L28.8372 60.0759L30.4939 60.2008C30.1114 60.2362 29.7124 60.2661 29.3409 60.2862L27.6444 60.3783L27.3263 60.1613L27.0082 59.9378Z" fill="#06923E"/>
</g>
<defs>
<filter id="filter0_d_3_180" x="0" y="0" width="172" height="73" filterUnits="userSpaceOnUse" color-interpolation-filters="sRGB">
<feFlood flood-opacity="0" result="BackgroundImageFix"/>
<feColorMatrix in="SourceAlpha" type="matrix" values="0 0 0 0 0 0 0 0 0 0 0 0 0 0 0 0 0 0 127 0" result="hardAlpha"/>
<feOffset dy="4"/>
<feGaussianBlur stdDeviation="2"/>
<feComposite in2="hardAlpha" operator="out"/>
<feColorMatrix type="matrix" values="0 0 0 0 0 0 0 0 0 0 0 0 0 0 0 0 0 0 0.2 0"/>
<feBlend mode="normal" in2="BackgroundImageFix" result="effect1_dropShadow_3_180"/>
<feBlend mode="normal" in="SourceGraphic" in2="effect1_dropShadow_3_180" result="shape"/>
</filter>
</defs>
</svg>
